<?xml version="1.0" encoding="UTF-8"?>
<svg id="_圖層_1" data-name="圖層_1" xmlns="http://www.w3.org/2000/svg" version="1.1" viewBox="0 0 300 300">
  <!-- Generator: Adobe Illustrator 29.2.1, SVG Export Plug-In . SVG Version: 2.1.0 Build 116)  -->
  <defs>
    <style>
      .st0 {
        fill: #fff;
      }
    </style>
  </defs>
  <path class="st0" d="M150,0C67.29,0,0,67.29,0,150s67.29,150,150,150,150-67.29,150-150S232.71,0,150,0ZM150,293.34c-79.04,0-143.34-64.3-143.34-143.34S70.96,6.66,150,6.66s143.34,64.3,143.34,143.34-64.3,143.34-143.34,143.34Z"/>
  <path class="st0" d="M150,169.54c10.79,0,19.54-8.75,19.54-19.54s-8.75-19.54-19.54-19.54c-6.28,0-11.85,2.97-15.43,7.58l-69.5-7.94c-.44-.07-.55.59-.17.72,0,0,41.89,14.78,65.99,23.29,1.89,8.82,9.72,15.43,19.1,15.43Z"/>
  <path class="st0" d="M150,26.4c-22.12,0-42.89,5.87-60.87,16.09-.33.07-.65.18-.96.36-.3.18-.56.4-.78.65-17.97,10.6-33.03,25.61-43.69,43.55-.33.26-.62.58-.85.97-.23.39-.36.81-.42,1.23-9.95,17.54-15.73,37.74-15.99,59.25-.17.4-.26.84-.26,1.3,0,.43.09.85.24,1.23.18,22.06,6.23,43.65,17.54,62.51.62,1.03,1.71,1.6,2.83,1.61.03,0,.07.01.1.01.07,0,.13-.02.2-.03.11,0,.22-.02.33-.04.39-.06.77-.17,1.13-.38l17.8-10.28c1.59-.92,2.14-2.96,1.22-4.55-.92-1.59-2.96-2.14-4.55-1.22l-14.97,8.64c-9.31-16.53-14.43-35.13-14.94-54.17h16.94c1.84,0,3.33-1.49,3.33-3.33s-1.49-3.33-3.33-3.33h-16.91c.57-18.81,5.56-36.52,14.02-52.09l14.69,8.48c.52.3,1.1.45,1.66.45,1.15,0,2.27-.6,2.89-1.67.92-1.59.37-3.63-1.22-4.55l-14.66-8.46c9.59-15.48,22.69-28.57,38.18-38.14l8.51,14.74c.62,1.07,1.74,1.67,2.89,1.67.57,0,1.14-.14,1.66-.45,1.59-.92,2.14-2.96,1.22-4.55l-8.52-14.76c15.61-8.46,33.35-13.43,52.19-13.96v17.14c0,1.84,1.49,3.33,3.33,3.33s3.33-1.49,3.33-3.33v-17.14c18.86.53,36.62,5.52,52.24,13.99l-8.63,14.95c-.92,1.59-.37,3.63,1.22,4.55.52.3,1.1.45,1.66.45,1.15,0,2.27-.6,2.89-1.67l8.62-14.93c33.34,20.62,55.6,57.51,55.6,99.51,0,21.2-5.74,41.98-16.61,60.08-.95,1.58-.44,3.62,1.14,4.57.54.32,1.13.48,1.71.48,1.13,0,2.24-.58,2.86-1.62,11.49-19.14,17.56-41.1,17.56-63.51,0-68.15-55.45-123.6-123.6-123.6Z"/>
  <path class="st0" d="M210.1,217.57h-123.87c-1.84,0-3.33,1.49-3.33,3.33s1.49,3.33,3.33,3.33h123.87c1.84,0,3.33-1.49,3.33-3.33s-1.49-3.33-3.33-3.33Z"/>
</svg>