<?xml version="1.0" encoding="UTF-8"?>
<svg id="_圖層_1" data-name="圖層_1" xmlns="http://www.w3.org/2000/svg" version="1.1" viewBox="0 0 370.7 300">
  <!-- Generator: Adobe Illustrator 29.2.1, SVG Export Plug-In . SVG Version: 2.1.0 Build 116)  -->
  <defs>
    <style>
      .st0 {
        fill: #fff;
      }
    </style>
  </defs>
  <path class="st0" d="M109.75,127.51c14.15,0,25.66-11.51,25.66-25.66s-11.51-25.66-25.66-25.66-25.66,11.51-25.66,25.66,11.51,25.66,25.66,25.66ZM109.75,83.39c10.18,0,18.46,8.28,18.46,18.46s-8.28,18.46-18.46,18.46-18.46-8.28-18.46-18.46,8.28-18.46,18.46-18.46Z"/>
  <path class="st0" d="M344.74,198.59l-14.83-4.75-34.58-73.26c-2.14-4.54-6.6-7.47-11.51-7.63l-18.23-1.15c-2.7-.09-4.82-2.28-4.82-4.98v-35.52h9.23c16.32,0,29.6-13.28,29.6-29.6V0h-7.2v41.7c0,12.35-10.05,22.4-22.4,22.4H0v7.2h34.82v22.4c0,13.56,8.09,25.1,19.71,28.14l4.92,1.86,11.68,48.15h28.34s-1.16-4.51-1.16-4.51c-.84-3.26-2.21-12.8,1.54-17.65,1.71-2.21,4.4-3.29,8.22-3.29s6.74,1.13,8.65,3.46c4.04,4.93,3.25,14.43,2.6,17.67l-.88,4.31h27.13l11.68-48.15,4.91-1.86c11.61-3.04,19.71-14.57,19.71-28.14v-22.4h22.47c0,18.6,0,39.54,0,57.92,0,14.27-1.31,29.15-10.76,41.35-4.25,5.48-10.14,10.86-17.03,15.55-1.54,1.05-3.15,2.05-4.76,3.05-5.84,3.64-11.88,7.39-15.85,13.77-3.91,6.26-5.56,17.55-4.9,24.85l.3,3.28h28.08l.22-4.04c.25-4.66.53-9.93,3.2-12.83,1.31-1.42,3.02-2.56,5.19-3.84,1.65-.97,3.34-1.9,5.03-2.83,4.51-2.48,9.17-5.04,13.32-8.53,4.77-4.02,9.44-9.34,13.87-15.83,5.76-8.43,10.08-17.75,12.85-27.71,1.86-6.67,2.59-13.18,2.89-19.69,4.63,4.23,10.59,6.98,17.15,7.5v156.73h7.2v-156.37l7.92.35c2.33.04,4.46,1.44,5.44,3.55l29.62,63.71-.55,13.7,26.17,46.78,41.78-23.2-25.96-49.92ZM174.67,93.7c0,10.34-5.95,19.06-14.48,21.21l-9.05,3.39-11.24,46.34h-12.99c.37-5.08.12-13.53-4.62-19.33-3.32-4.05-8.1-6.11-14.23-6.11s-10.8,2.05-13.92,6.1c-4.46,5.78-4.29,14.2-3.63,19.34h-13.72l-11.24-46.34-8.66-3.27-.39-.12c-8.52-2.15-14.47-10.87-14.47-21.21v-22.4h132.64v22.4ZM214.28,179.11c-4.06,5.95-8.29,10.79-12.56,14.38-3.6,3.03-7.75,5.31-12.14,7.72-1.75.96-3.5,1.92-5.21,2.93-2.36,1.39-4.82,2.97-6.84,5.17-3.71,4.03-4.57,9.57-4.93,14.55h-14.5c.1-5.78,1.51-13.22,3.95-17.12,3.09-4.96,8.17-8.12,13.55-11.46,1.69-1.05,3.38-2.1,5-3.21,7.51-5.1,13.96-11.01,18.67-17.09,10.81-13.94,12.27-30.95,12.27-45.76,0-18.39,0-39.32,0-57.92h14.86v43.01c0,4.22.94,8.23,2.59,11.87-.05,9.24-.32,18.29-2.84,27.35-2.56,9.2-6.55,17.8-11.86,25.58ZM310.02,223.19l.54-13.41-30.36-65.29c-2.13-4.59-6.78-7.61-11.74-7.71l-13.4-.59c-11.84-.23-21.47-10.05-21.47-21.88v-43.01h19.98v35.52c0,6.61,5.17,11.96,11.67,12.17l18.23,1.15c2.31.08,4.36,1.42,5.35,3.51l35.92,76.09,14.98,4.79,21.36,41.08-29.38,16.32-21.67-38.74Z"/>
</svg>