<?xml version="1.0" encoding="UTF-8"?>
<svg id="_圖層_1" data-name="圖層_1" xmlns="http://www.w3.org/2000/svg" version="1.1" viewBox="0 0 300 300">
  <!-- Generator: Adobe Illustrator 29.2.1, SVG Export Plug-In . SVG Version: 2.1.0 Build 116)  -->
  <defs>
    <style>
      .st0 {
        fill: #e4cda9;
      }
    </style>
  </defs>
  <path class="st0" d="M208.15,144.31c-4.48-3.33-10.56-3.87-14.61-3.79v-2.59c0-2.01-1.63-3.64-3.64-3.64h-90.68c-2.01,0-3.64,1.63-3.64,3.64v12c0,27.01,21.97,48.98,48.98,48.98,20.41,0,37.94-12.55,45.29-30.34,3.26.68,6.22,1.03,8.84,1.03,4.84,0,8.57-1.16,11.15-3.48,3.19-2.86,4.41-7.14,3.63-12.71-.53-3.76-2.37-6.91-5.31-9.1ZM186.27,149.93c0,22.99-18.71,41.7-41.7,41.7s-41.7-18.71-41.7-41.7v-8.36h83.4v8.36ZM204.97,160.71c-1,.89-4.15,2.58-12.85.9.92-3.74,1.42-7.65,1.42-11.67v-2.12c3.19-.06,7.59.35,10.28,2.35,1.4,1.05,2.17,2.4,2.44,4.27.42,3.02,0,5.14-1.28,6.28Z"/>
  <path class="st0" d="M132.61,85.17c2.32.01,9,.79,12.07,4.16,1.3,1.43,1.84,3.24,1.65,5.55-.32,3.71-4.15,6.57-7.86,9.32-4.09,3.04-8.32,6.19-8.43,11.16-.19,8.07,7.77,12.33,12.51,13.58.31.08.62.12.93.12,1.61,0,3.07-1.07,3.51-2.7.52-1.94-.63-3.93-2.57-4.45-.07-.02-7.2-2.08-7.1-6.37.03-1.42,3.07-3.68,5.5-5.49,4.53-3.37,10.16-7.56,10.76-14.54.37-4.33-.85-8.16-3.54-11.1-5.78-6.31-16.24-6.5-17.41-6.51h0c-2,0-3.63,1.62-3.64,3.62,0,2.01,1.62,3.64,3.62,3.65Z"/>
  <path class="st0" d="M150,0C67.29,0,0,67.29,0,150s67.29,150,150,150,150-67.29,150-150S232.71,0,150,0ZM150,292.72c-78.7,0-142.72-64.03-142.72-142.72S71.3,7.28,150,7.28s142.72,64.03,142.72,142.72-64.03,142.72-142.72,142.72Z"/>
  <path class="st0" d="M150,28.86c-66.79,0-121.14,54.34-121.14,121.14s54.34,121.14,121.14,121.14,121.14-54.34,121.14-121.14S216.79,28.86,150,28.86ZM150,263.86c-62.78,0-113.86-51.08-113.86-113.86s51.08-113.86,113.86-113.86,113.86,51.08,113.86,113.86-51.08,113.86-113.86,113.86Z"/>
</svg>