<?xml version="1.0" encoding="UTF-8"?>
<svg id="_圖層_1" data-name="圖層_1" xmlns="http://www.w3.org/2000/svg" version="1.1" viewBox="0 0 300 300">
  <!-- Generator: Adobe Illustrator 29.2.1, SVG Export Plug-In . SVG Version: 2.1.0 Build 116)  -->
  <defs>
    <style>
      .st0 {
        fill: #e4cda9;
      }
    </style>
  </defs>
  <path class="st0" d="M149.81,144c4.96,2.52,8.83-.29,12.01-3.84,2.88-3.23,4.11-4.95,8.71-13.25,3.15-5.69,5.69-7.31,8.61-9.84,3.39-2.95,5.27-11.82-7.19-9.75-9.55,1.59-18.94,9.8-22.61,17.88-4.5,9.92-2.99,17.05.46,18.8Z"/>
  <path class="st0" d="M177.93,121.18c-2.86,3.25-4.07,4.98-8.6,13.32-3.11,5.72-5.63,7.35-8.53,9.91-3.37,2.97-5.18,11.87,7.27,9.69,9.54-1.67,18.86-9.95,22.46-18.06,4.42-9.96,2.85-17.07-.61-18.8-4.98-2.48-8.83.36-11.98,3.94Z"/>
  <path class="st0" d="M116.56,118.74c8.07,7.31,15.32,8.06,18.05,5.3,3.91-3.95,2.43-8.5,0-12.61-2.19-3.73-3.46-5.43-9.95-12.34-4.46-4.74-5.22-7.65-6.74-11.21-1.77-4.13-9.65-8.63-11.48,3.86-1.4,9.58,3.54,21.03,10.12,26.99Z"/>
  <path class="st0" d="M131.51,102.56c4.49,4.7,5.28,7.61,6.83,11.15,1.8,4.12,9.72,8.55,11.45-3.96,1.32-9.59-3.71-21-10.34-26.91-8.13-7.25-15.38-7.93-18.09-5.16-3.88,3.98-2.36,8.52.09,12.61,2.22,3.72,3.5,5.4,10.05,12.26Z"/>
  <path class="st0" d="M194.63,160.64h-89.26c-2.01,0-3.64,1.63-3.64,3.64v11.81c0,26.61,21.65,48.27,48.27,48.27s48.27-21.65,48.27-48.27v-11.81c0-2.01-1.63-3.64-3.64-3.64ZM190.99,176.09c0,22.6-18.39,40.99-40.99,40.99s-40.99-18.39-40.99-40.99v-8.17h81.98v8.17Z"/>
  <path class="st0" d="M150,0C67.29,0,0,67.29,0,150s67.29,150,150,150,150-67.29,150-150S232.71,0,150,0ZM150,292.72c-78.7,0-142.72-64.03-142.72-142.72S71.3,7.28,150,7.28s142.72,64.02,142.72,142.72-64.02,142.72-142.72,142.72Z"/>
  <path class="st0" d="M150,28.86c-66.8,0-121.14,54.34-121.14,121.14s54.34,121.14,121.14,121.14,121.13-54.34,121.13-121.14S216.79,28.86,150,28.86ZM150,263.86c-62.78,0-113.86-51.08-113.86-113.86s51.08-113.86,113.86-113.86,113.86,51.08,113.86,113.86-51.08,113.86-113.86,113.86Z"/>
</svg>