<?xml version="1.0" encoding="UTF-8"?>
<svg id="_圖層_1" data-name="圖層_1" xmlns="http://www.w3.org/2000/svg" version="1.1" viewBox="0 0 283.07 300">
  <!-- Generator: Adobe Illustrator 29.2.1, SVG Export Plug-In . SVG Version: 2.1.0 Build 116)  -->
  <defs>
    <style>
      .st0 {
        fill: #fff;
      }
    </style>
  </defs>
  <path class="st0" d="M167.7,215.84c-.87-1.2-2.43-1.69-3.83-1.2-7.2,2.51-14.71,3.78-22.33,3.78-37.39,0-67.8-30.42-67.8-67.8,0-14.96,4.79-29.15,13.84-41.04.9-1.18.92-2.81.05-4.02L32.61,29.8c-.6-.82-1.53-1.33-2.55-1.38-1.02-.06-2,.36-2.68,1.11-12.12,13.49-19.73,30.13-22.03,48.11C-.69,125.02-1.62,173.18,2.57,220.77l.57,6.43c3.66,41.5,37.84,72.8,79.5,72.8h117.78c6.98,0,13.96-.93,20.74-2.75,1.07-.29,1.93-1.08,2.3-2.13.37-1.04.2-2.2-.45-3.1l-55.32-76.19ZM200.43,293.27h-117.78c-38.15,0-69.45-28.66-72.8-66.66l-.57-6.43c-4.15-47.11-3.23-94.78,2.75-141.7,1.94-15.23,8.01-29.41,17.64-41.28l51.06,70.31c-8.99,12.64-13.73,27.49-13.73,43.09,0,41.1,33.44,74.54,74.54,74.54,7.54,0,14.98-1.13,22.16-3.37l50.9,70.1c-4.68.93-9.42,1.39-14.17,1.39Z"/>
  <path class="st0" d="M277.71,77.64C272.07,33.38,234.17,0,189.55,0h-96.04c-10.57,0-20.95,1.86-30.85,5.53-.99.37-1.75,1.17-2.05,2.18-.31,1.01-.12,2.1.5,2.95l54.26,74.73c.87,1.2,2.43,1.69,3.83,1.2,7.2-2.51,14.71-3.78,22.33-3.78,37.39,0,67.8,30.42,67.8,67.8,0,14.96-4.79,29.15-13.84,41.04-.9,1.18-.92,2.81-.05,4.02l57.55,79.25c.59.81,1.5,1.31,2.5,1.38.08,0,.15,0,.23,0,.92,0,1.8-.37,2.43-1.04,12.46-13.05,20.19-30.12,21.77-48.07l.57-6.43c4.2-47.59,3.26-95.75-2.78-143.14ZM273.79,220.18l-.57,6.43c-1.33,15.09-7.41,29.5-17.22,41l-53.66-73.9c8.99-12.64,13.73-27.49,13.73-43.09,0-41.1-33.44-74.54-74.54-74.54-7.54,0-14.98,1.13-22.16,3.37L69.24,10.4c7.86-2.44,16.01-3.67,24.28-3.67h96.04c41.24,0,76.27,30.85,81.48,71.76,5.98,46.91,6.9,94.59,2.75,141.7Z"/>
  <path class="st0" d="M114.82,136.43c-5.06,8.76-7.24,18.56-6.15,27.59.89,7.42,3.9,13.66,8.59,18.11,1.13-8.27,5.48-24.05,22.2-33.82,18.03-10.54,18.53-29.7,18.53-31.77-14.42-5.82-33.12,2.51-43.17,19.9Z"/>
  <path class="st0" d="M125.08,187.18c3.08,1.25,6.36,1.85,9.71,1.85,12.31,0,25.56-8.09,33.46-21.76,5.06-8.76,7.24-18.56,6.15-27.59-.89-7.42-3.9-13.66-8.59-18.11-1.13,8.27-5.48,24.05-22.2,33.83-18.1,10.59-18.53,29.85-18.53,31.78Z"/>
</svg>