<?xml version="1.0" encoding="UTF-8"?>
<svg id="_圖層_1" data-name="圖層_1" xmlns="http://www.w3.org/2000/svg" version="1.1" viewBox="0 0 300 300">
  <!-- Generator: Adobe Illustrator 29.2.1, SVG Export Plug-In . SVG Version: 2.1.0 Build 116)  -->
  <defs>
    <style>
      .st0 {
        fill: #e4cda9;
      }
    </style>
  </defs>
  <path class="st0" d="M130.94,128.86c4.96,2.52,8.84-.28,12.01-3.84,2.88-3.23,4.11-4.95,8.71-13.25,3.15-5.69,5.69-7.31,8.61-9.84,3.39-2.95,5.27-11.83-7.19-9.75-9.55,1.59-18.95,9.8-22.61,17.88-4.5,9.92-2.99,17.05.46,18.81Z"/>
  <path class="st0" d="M159.06,106.04c-2.86,3.25-4.07,4.98-8.6,13.32-3.11,5.72-5.63,7.35-8.53,9.91-3.37,2.97-5.18,11.87,7.27,9.69,9.54-1.67,18.87-9.95,22.47-18.06,4.42-9.96,2.85-17.07-.61-18.8-4.98-2.48-8.83.36-11.98,3.94Z"/>
  <path class="st0" d="M194.64,146.25h-89.27c-3,0-5.44,2.43-5.44,5.44v11.81c0,27.61,22.46,50.08,50.07,50.08s50.07-22.46,50.07-50.08v-11.81c0-3-2.44-5.44-5.44-5.44ZM189.19,163.51c0,21.61-17.58,39.19-39.19,39.19s-39.19-17.58-39.19-39.19v-6.37h78.39v6.37Z"/>
  <path class="st0" d="M150,0C67.29,0,0,67.29,0,150s67.29,150,150,150,150-67.29,150-150S232.71,0,150,0ZM150,292.75c-78.71,0-142.75-64.04-142.75-142.75S71.29,7.25,150,7.25s142.75,64.04,142.75,142.75-64.04,142.75-142.75,142.75Z"/>
  <path class="st0" d="M150,28.87c-66.79,0-121.13,54.34-121.13,121.13s54.34,121.13,121.13,121.13,121.13-54.34,121.13-121.13S216.79,28.87,150,28.87ZM150,263.88c-62.79,0-113.88-51.09-113.88-113.88s51.09-113.88,113.88-113.88,113.88,51.09,113.88,113.88-51.09,113.88-113.88,113.88Z"/>
</svg>